<?xml version="1.0" encoding="utf-8"?>
<!-- Generator: Adobe Illustrator 16.0.0, SVG Export Plug-In . SVG Version: 6.00 Build 0)  -->
<!DOCTYPE svg PUBLIC "-//W3C//DTD SVG 1.1//EN" "http://www.w3.org/Graphics/SVG/1.1/DTD/svg11.dtd">
<svg version="1.1" id="Layer_1" xmlns="http://www.w3.org/2000/svg" xmlns:xlink="http://www.w3.org/1999/xlink" x="0px" y="0px"
	 width="190px" height="130px" viewBox="0 0 190 130" enable-background="new 0 0 190 130" xml:space="preserve">
<g>
	<linearGradient id="SVGID_1_" gradientUnits="userSpaceOnUse" x1="87.7397" y1="2.4004" x2="103.8429" y2="62.4981">
		<stop  offset="0" style="stop-color:#FF9300"/>
		<stop  offset="1" style="stop-color:#FF8000"/>
	</linearGradient>
	<path fill="url(#SVGID_1_)" d="M89.387,2.497L66.093,19.425c-2.748,1.997-3.897,5.537-2.849,8.765l8.896,27.389
		C73.191,58.81,76.202,61,79.602,61h28.799c3.395,0,6.405-2.189,7.459-5.421l8.897-27.389c1.049-3.228-0.104-6.768-2.849-8.765
		L98.608,2.497C95.859,0.501,92.137,0.501,89.387,2.497"/>
	<g>
		<path fill="#FF8000" d="M8.288,76.606c0.877,0,1.632,0.063,2.264,0.192s1.076,0.246,1.333,0.354l-0.546,2.569
			c-0.257-0.129-0.621-0.252-1.092-0.37c-0.472-0.117-1.05-0.176-1.734-0.176c-1.393,0-2.366,0.38-2.923,1.14
			s-0.835,1.782-0.835,3.067v1.444h6.423v2.506H4.754v14.194H1.768V83.318c0-2.141,0.524-3.795,1.573-4.962
			S6.04,76.606,8.288,76.606z"/>
		<path fill="#FF8000" d="M13.232,93.21c0-1.478,0.214-2.768,0.643-3.87c0.428-1.103,0.995-2.018,1.702-2.746
			c0.706-0.728,1.52-1.273,2.44-1.638s1.863-0.546,2.826-0.546c2.248,0,3.972,0.701,5.171,2.104
			c1.198,1.402,1.798,3.538,1.798,6.407c0,0.128,0,0.294,0,0.497c0,0.204-0.011,0.392-0.032,0.563H16.347
			c0.129,1.734,0.631,3.051,1.51,3.95c0.877,0.899,2.248,1.349,4.11,1.349c1.049,0,1.932-0.091,2.649-0.273
			c0.717-0.182,1.258-0.357,1.622-0.529l0.417,2.505c-0.364,0.192-1.001,0.396-1.91,0.61c-0.91,0.214-1.943,0.321-3.1,0.321
			c-1.456,0-2.714-0.22-3.773-0.659c-1.06-0.438-1.933-1.043-2.617-1.814c-0.686-0.771-1.193-1.686-1.525-2.745
			C13.398,95.634,13.232,94.473,13.232,93.21z M24.697,91.571c0.021-1.349-0.315-2.456-1.012-3.323
			c-0.695-0.867-1.653-1.301-2.874-1.301c-0.686,0-1.29,0.134-1.814,0.401s-0.969,0.615-1.333,1.044s-0.647,0.921-0.851,1.477
			c-0.204,0.558-0.337,1.124-0.401,1.702H24.697z"/>
		<path fill="#FF8000" d="M37.125,101.849c-1.842-0.043-3.147-0.438-3.918-1.188c-0.771-0.749-1.156-1.916-1.156-3.5V77.12
			l2.986-0.514v20.071c0,0.493,0.043,0.899,0.129,1.221c0.085,0.321,0.225,0.578,0.418,0.771c0.192,0.192,0.449,0.337,0.771,0.434
			s0.717,0.177,1.188,0.241L37.125,101.849z"/>
		<path fill="#FF8000" d="M42.361,81.809c-0.536,0-0.991-0.177-1.365-0.529c-0.375-0.354-0.563-0.83-0.563-1.43
			c0-0.599,0.188-1.076,0.563-1.429c0.374-0.354,0.829-0.53,1.365-0.53c0.534,0,0.989,0.177,1.364,0.53
			c0.375,0.353,0.563,0.83,0.563,1.429c0,0.6-0.188,1.076-0.563,1.43C43.35,81.632,42.895,81.809,42.361,81.809z M43.87,101.527
			h-2.986v-16.7h2.986V101.527z"/>
		<path fill="#FF8000" d="M63.716,93.21c0,1.263-0.166,2.43-0.497,3.5c-0.332,1.071-0.819,1.991-1.462,2.762
			c-0.642,0.771-1.429,1.371-2.36,1.799c-0.931,0.428-1.996,0.643-3.195,0.643c-0.963,0-1.814-0.129-2.553-0.386
			c-0.739-0.257-1.29-0.503-1.654-0.738v6.68h-2.986V85.342c0.706-0.172,1.59-0.358,2.649-0.563c1.06-0.203,2.285-0.305,3.677-0.305
			c1.285,0,2.441,0.203,3.469,0.61c1.027,0.406,1.905,0.984,2.634,1.733c0.728,0.75,1.289,1.665,1.686,2.746
			S63.716,91.86,63.716,93.21z M60.602,93.21c0-1.948-0.482-3.447-1.445-4.496c-0.964-1.049-2.248-1.574-3.854-1.574
			c-0.898,0-1.601,0.032-2.104,0.097s-0.904,0.14-1.204,0.225v10.534c0.364,0.3,0.889,0.589,1.574,0.866
			c0.685,0.279,1.434,0.418,2.248,0.418c0.855,0,1.589-0.155,2.199-0.466c0.61-0.31,1.108-0.738,1.493-1.284
			c0.386-0.546,0.664-1.188,0.836-1.927C60.516,94.863,60.602,94.066,60.602,93.21z"/>
		<path fill="#FF8000" d="M66.992,93.21c0-1.478,0.214-2.768,0.643-3.87c0.428-1.103,0.995-2.018,1.702-2.746
			c0.706-0.728,1.52-1.273,2.44-1.638s1.863-0.546,2.826-0.546c2.248,0,3.972,0.701,5.171,2.104
			c1.198,1.402,1.798,3.538,1.798,6.407c0,0.128,0,0.294,0,0.497c0,0.204-0.011,0.392-0.032,0.563H70.107
			c0.129,1.734,0.631,3.051,1.51,3.95c0.877,0.899,2.248,1.349,4.11,1.349c1.049,0,1.932-0.091,2.649-0.273
			c0.717-0.182,1.258-0.357,1.622-0.529l0.417,2.505c-0.364,0.192-1.001,0.396-1.91,0.61c-0.91,0.214-1.943,0.321-3.1,0.321
			c-1.456,0-2.714-0.22-3.773-0.659c-1.06-0.438-1.933-1.043-2.617-1.814c-0.686-0.771-1.193-1.686-1.525-2.745
			C67.158,95.634,66.992,94.473,66.992,93.21z M78.457,91.571c0.021-1.349-0.315-2.456-1.012-3.323
			c-0.695-0.867-1.653-1.301-2.874-1.301c-0.686,0-1.29,0.134-1.814,0.401s-0.969,0.615-1.333,1.044s-0.647,0.921-0.851,1.477
			c-0.204,0.558-0.337,1.124-0.401,1.702H78.457z"/>
		<path fill="#FF8000" d="M96.28,85.566c0.364-0.235,0.915-0.481,1.654-0.739c0.738-0.257,1.59-0.385,2.553-0.385
			c1.199,0,2.265,0.214,3.195,0.643c0.932,0.428,1.719,1.027,2.36,1.798c0.643,0.771,1.13,1.691,1.462,2.762
			c0.331,1.071,0.497,2.248,0.497,3.533c0,1.349-0.197,2.563-0.594,3.645c-0.396,1.082-0.958,1.997-1.686,2.746
			c-0.729,0.75-1.606,1.328-2.634,1.734s-2.184,0.61-3.469,0.61c-1.392,0-2.622-0.097-3.693-0.289
			c-1.07-0.193-1.948-0.386-2.633-0.578V77.12l2.986-0.514V85.566z M96.28,98.926c0.3,0.086,0.723,0.166,1.269,0.241
			s1.226,0.112,2.039,0.112c1.606,0,2.891-0.53,3.854-1.59c0.963-1.06,1.445-2.563,1.445-4.512c0-0.856-0.086-1.659-0.257-2.409
			c-0.172-0.749-0.45-1.396-0.836-1.942c-0.385-0.546-0.883-0.975-1.493-1.285c-0.61-0.31-1.344-0.466-2.199-0.466
			c-0.814,0-1.563,0.14-2.248,0.418c-0.686,0.278-1.21,0.567-1.574,0.867V98.926z"/>
		<path fill="#FF8000" d="M111.277,93.21c0-1.478,0.214-2.768,0.643-3.87c0.428-1.103,0.995-2.018,1.702-2.746
			c0.706-0.728,1.52-1.273,2.44-1.638s1.863-0.546,2.826-0.546c2.248,0,3.972,0.701,5.171,2.104
			c1.198,1.402,1.798,3.538,1.798,6.407c0,0.128,0,0.294,0,0.497c0,0.204-0.011,0.392-0.032,0.563h-11.433
			c0.129,1.734,0.631,3.051,1.51,3.95c0.877,0.899,2.248,1.349,4.11,1.349c1.049,0,1.932-0.091,2.649-0.273
			c0.717-0.182,1.258-0.357,1.622-0.529l0.417,2.505c-0.364,0.192-1.001,0.396-1.91,0.61c-0.91,0.214-1.943,0.321-3.1,0.321
			c-1.456,0-2.714-0.22-3.773-0.659c-1.06-0.438-1.933-1.043-2.617-1.814c-0.686-0.771-1.193-1.686-1.525-2.745
			C111.443,95.634,111.277,94.473,111.277,93.21z M122.742,91.571c0.021-1.349-0.315-2.456-1.012-3.323
			c-0.695-0.867-1.653-1.301-2.874-1.301c-0.686,0-1.29,0.134-1.814,0.401s-0.969,0.615-1.333,1.044s-0.647,0.921-0.851,1.477
			c-0.204,0.558-0.337,1.124-0.401,1.702H122.742z"/>
		<path fill="#FF8000" d="M137.418,101.913c-1.349,0-2.532-0.215-3.549-0.643s-1.874-1.027-2.569-1.799
			c-0.695-0.771-1.215-1.686-1.558-2.745c-0.343-1.061-0.514-2.232-0.514-3.517c0-1.285,0.188-2.462,0.563-3.533
			c0.374-1.07,0.904-1.996,1.59-2.777c0.685-0.781,1.525-1.392,2.521-1.831c0.995-0.438,2.104-0.658,3.324-0.658
			c0.749,0,1.498,0.064,2.248,0.192c0.749,0.129,1.466,0.332,2.151,0.61l-0.675,2.537c-0.449-0.214-0.969-0.386-1.558-0.514
			c-0.589-0.129-1.215-0.192-1.878-0.192c-1.67,0-2.95,0.524-3.838,1.573c-0.889,1.049-1.333,2.58-1.333,4.593
			c0,0.898,0.102,1.724,0.305,2.473c0.204,0.749,0.524,1.392,0.964,1.927c0.438,0.535,1.001,0.947,1.687,1.236
			c0.685,0.289,1.52,0.434,2.505,0.434c0.791,0,1.509-0.075,2.151-0.225s1.146-0.311,1.51-0.481l0.417,2.505
			c-0.172,0.107-0.417,0.208-0.738,0.305s-0.686,0.182-1.092,0.257c-0.407,0.075-0.841,0.139-1.301,0.192
			C138.291,101.886,137.846,101.913,137.418,101.913z"/>
		<path fill="#FF8000" d="M151.131,92.343c0.643,0.492,1.322,1.103,2.04,1.83c0.717,0.729,1.423,1.515,2.119,2.36
			c0.695,0.847,1.354,1.702,1.976,2.569c0.62,0.867,1.145,1.676,1.573,2.425h-3.501c-0.449-0.749-0.969-1.515-1.558-2.296
			s-1.204-1.531-1.846-2.248c-0.643-0.718-1.296-1.376-1.96-1.976c-0.663-0.599-1.295-1.103-1.895-1.509v8.028h-2.986V77.12
			l2.986-0.514v15.223c0.514-0.515,1.081-1.081,1.702-1.702s1.231-1.253,1.831-1.896c0.599-0.642,1.166-1.257,1.702-1.847
			c0.534-0.588,0.995-1.107,1.381-1.558h3.5c-0.492,0.536-1.027,1.124-1.605,1.767s-1.178,1.29-1.799,1.943
			s-1.247,1.306-1.878,1.959C152.283,91.149,151.688,91.765,151.131,92.343z"/>
		<path fill="#FF8000" d="M160.091,93.21c0-1.478,0.214-2.768,0.643-3.87c0.428-1.103,0.995-2.018,1.702-2.746
			c0.706-0.728,1.52-1.273,2.44-1.638s1.863-0.546,2.826-0.546c2.248,0,3.972,0.701,5.171,2.104
			c1.198,1.402,1.798,3.538,1.798,6.407c0,0.128,0,0.294,0,0.497c0,0.204-0.011,0.392-0.032,0.563h-11.433
			c0.129,1.734,0.631,3.051,1.51,3.95c0.877,0.899,2.248,1.349,4.11,1.349c1.049,0,1.932-0.091,2.649-0.273
			c0.717-0.182,1.258-0.357,1.622-0.529l0.417,2.505c-0.364,0.192-1.001,0.396-1.91,0.61c-0.91,0.214-1.943,0.321-3.1,0.321
			c-1.456,0-2.714-0.22-3.773-0.659c-1.06-0.438-1.933-1.043-2.617-1.814c-0.686-0.771-1.193-1.686-1.525-2.745
			C160.257,95.634,160.091,94.473,160.091,93.21z M171.556,91.571c0.021-1.349-0.315-2.456-1.012-3.323
			c-0.695-0.867-1.653-1.301-2.874-1.301c-0.686,0-1.29,0.134-1.814,0.401s-0.969,0.615-1.333,1.044s-0.647,0.921-0.851,1.477
			c-0.204,0.558-0.337,1.124-0.401,1.702H171.556z"/>
		<path fill="#FF8000" d="M185.141,84.475c0.257,0,0.551,0.016,0.883,0.048s0.658,0.075,0.979,0.129s0.615,0.107,0.884,0.16
			c0.268,0.054,0.465,0.102,0.594,0.145l-0.514,2.602c-0.236-0.086-0.626-0.188-1.172-0.306c-0.547-0.117-1.248-0.177-2.104-0.177
			c-0.558,0-1.108,0.06-1.654,0.177c-0.546,0.118-0.905,0.198-1.076,0.241v14.034h-2.986V85.534
			c0.706-0.257,1.584-0.498,2.633-0.723S183.834,84.475,185.141,84.475z"/>
	</g>
	<g>
		<path fill="#FF8000" d="M23.764,112.314c0.482,0,0.875,0.037,1.179,0.111c0.304,0.075,0.502,0.141,0.594,0.198l-0.224,0.964
			c-0.126-0.058-0.313-0.118-0.56-0.181c-0.246-0.063-0.559-0.095-0.938-0.095c-0.791,0-1.356,0.2-1.694,0.602
			c-0.339,0.402-0.508,1.044-0.508,1.928v0.929h3.579v0.946h-3.579v7.948h-1.118v-9.858c0-1.158,0.267-2.03,0.8-2.615
			S22.652,112.314,23.764,112.314z"/>
		<path fill="#FF8000" d="M29.993,116.599c0.366,0,0.714,0.028,1.041,0.086c0.326,0.058,0.553,0.114,0.679,0.172l-0.224,0.963
			c-0.092-0.045-0.277-0.094-0.559-0.146s-0.651-0.078-1.109-0.078c-0.482,0-0.869,0.035-1.162,0.104
			c-0.292,0.069-0.484,0.127-0.576,0.172v7.794h-1.118v-8.481c0.287-0.126,0.683-0.256,1.188-0.388
			C28.656,116.664,29.27,116.599,29.993,116.599z"/>
		<path fill="#FF8000" d="M40.986,121.227c0,0.699-0.101,1.336-0.301,1.909c-0.201,0.574-0.481,1.062-0.843,1.463
			s-0.789,0.714-1.282,0.938s-1.038,0.335-1.634,0.335c-0.597,0-1.142-0.111-1.635-0.335s-0.921-0.536-1.281-0.938
			c-0.361-0.401-0.643-0.889-0.844-1.463c-0.2-0.573-0.301-1.21-0.301-1.909c0-0.7,0.101-1.336,0.301-1.91
			c0.201-0.573,0.482-1.063,0.844-1.471c0.36-0.407,0.788-0.723,1.281-0.946s1.038-0.336,1.635-0.336
			c0.596,0,1.141,0.112,1.634,0.336s0.921,0.539,1.282,0.946s0.642,0.897,0.843,1.471C40.885,119.891,40.986,120.526,40.986,121.227
			z M39.799,121.227c0-1.112-0.259-1.999-0.774-2.658c-0.517-0.659-1.216-0.989-2.099-0.989c-0.884,0-1.583,0.33-2.1,0.989
			c-0.516,0.659-0.773,1.546-0.773,2.658s0.258,1.995,0.773,2.649c0.517,0.653,1.216,0.98,2.1,0.98c0.883,0,1.582-0.327,2.099-0.98
			C39.541,123.222,39.799,122.339,39.799,121.227z"/>
		<path fill="#FF8000" d="M43.412,117.08c0.333-0.092,0.78-0.195,1.342-0.31c0.563-0.114,1.25-0.172,2.064-0.172
			c0.677,0,1.242,0.098,1.695,0.292c0.452,0.195,0.813,0.474,1.084,0.835c0.269,0.361,0.461,0.794,0.576,1.299
			c0.114,0.505,0.172,1.061,0.172,1.669v4.972h-1.118v-4.61c0-0.631-0.043-1.164-0.129-1.601c-0.086-0.436-0.229-0.791-0.431-1.066
			c-0.2-0.275-0.464-0.474-0.791-0.594s-0.737-0.181-1.23-0.181c-0.527,0-0.983,0.029-1.367,0.086
			c-0.385,0.058-0.635,0.109-0.749,0.155v7.811h-1.118V117.08z"/>
		<path fill="#FF8000" d="M54.25,116.771h3.544v0.946H54.25v4.731c0,0.505,0.043,0.914,0.129,1.229s0.209,0.56,0.37,0.731
			c0.16,0.172,0.355,0.287,0.585,0.344c0.229,0.058,0.481,0.086,0.757,0.086c0.47,0,0.849-0.054,1.136-0.163
			c0.286-0.108,0.51-0.209,0.671-0.301l0.275,0.929c-0.161,0.104-0.442,0.221-0.844,0.353s-0.837,0.198-1.308,0.198
			c-0.55,0-1.012-0.072-1.385-0.215c-0.373-0.144-0.671-0.361-0.895-0.654c-0.224-0.292-0.382-0.656-0.473-1.093
			c-0.093-0.436-0.138-0.951-0.138-1.548v-8.189l1.118-0.206V116.771z"/>
		<path fill="#FF8000" d="M59.326,121.209c0-0.779,0.111-1.459,0.335-2.039c0.225-0.578,0.517-1.063,0.878-1.453
			s0.774-0.68,1.238-0.869c0.465-0.189,0.943-0.284,1.437-0.284c1.09,0,1.959,0.356,2.606,1.067
			c0.648,0.711,0.973,1.807,0.973,3.286c0,0.092-0.003,0.184-0.009,0.274c-0.006,0.093-0.015,0.179-0.025,0.259h-6.245
			c0.034,1.09,0.304,1.927,0.809,2.512c0.504,0.585,1.307,0.877,2.408,0.877c0.607,0,1.09-0.057,1.445-0.172
			c0.355-0.114,0.613-0.212,0.774-0.292l0.206,0.963c-0.161,0.092-0.462,0.201-0.903,0.327s-0.961,0.189-1.557,0.189
			c-0.78,0-1.445-0.115-1.996-0.345c-0.551-0.229-1.004-0.55-1.359-0.963s-0.613-0.903-0.773-1.471
			C59.406,122.508,59.326,121.886,59.326,121.209z M65.64,120.504c-0.023-0.93-0.241-1.651-0.654-2.168s-0.998-0.774-1.755-0.774
			c-0.401,0-0.76,0.081-1.075,0.241s-0.591,0.376-0.826,0.646c-0.234,0.27-0.418,0.582-0.55,0.938
			c-0.133,0.355-0.21,0.729-0.232,1.118H65.64z"/>
		<path fill="#FF8000" d="M69.287,117.08c0.333-0.092,0.78-0.195,1.342-0.31c0.563-0.114,1.25-0.172,2.064-0.172
			c0.677,0,1.242,0.098,1.695,0.292c0.452,0.195,0.813,0.474,1.084,0.835c0.269,0.361,0.461,0.794,0.576,1.299
			c0.114,0.505,0.172,1.061,0.172,1.669v4.972h-1.118v-4.61c0-0.631-0.043-1.164-0.129-1.601c-0.086-0.436-0.229-0.791-0.431-1.066
			c-0.2-0.275-0.464-0.474-0.791-0.594s-0.737-0.181-1.23-0.181c-0.527,0-0.983,0.029-1.367,0.086
			c-0.385,0.058-0.635,0.109-0.749,0.155v7.811h-1.118V117.08z"/>
		<path fill="#FF8000" d="M86.147,125.39c-0.333,0.115-0.757,0.224-1.273,0.327c-0.516,0.104-1.17,0.154-1.961,0.154
			c-0.654,0-1.248-0.105-1.781-0.318c-0.533-0.212-0.992-0.519-1.376-0.92c-0.385-0.401-0.683-0.889-0.895-1.463
			c-0.213-0.573-0.318-1.221-0.318-1.943c0-0.677,0.089-1.299,0.267-1.867c0.178-0.567,0.438-1.058,0.783-1.471
			c0.344-0.413,0.766-0.734,1.264-0.964c0.499-0.229,1.07-0.344,1.712-0.344c0.585,0,1.093,0.083,1.523,0.249
			c0.43,0.167,0.742,0.324,0.938,0.474v-4.783l1.118-0.206V125.39z M85.029,118.388c-0.104-0.08-0.232-0.166-0.388-0.258
			c-0.154-0.092-0.335-0.178-0.542-0.259c-0.206-0.08-0.43-0.146-0.671-0.197c-0.24-0.052-0.493-0.078-0.757-0.078
			c-0.551,0-1.013,0.098-1.385,0.293c-0.373,0.195-0.674,0.456-0.903,0.783c-0.229,0.326-0.396,0.711-0.499,1.152
			s-0.154,0.909-0.154,1.402c0,1.17,0.292,2.067,0.877,2.692s1.359,0.938,2.322,0.938c0.551,0,0.995-0.025,1.334-0.077
			c0.338-0.052,0.594-0.106,0.766-0.164V118.388z"/>
		<path fill="#FF8000" d="M100.1,125.39c-0.333,0.115-0.757,0.224-1.273,0.327c-0.516,0.104-1.17,0.154-1.961,0.154
			c-0.654,0-1.248-0.105-1.781-0.318c-0.533-0.212-0.992-0.519-1.376-0.92c-0.385-0.401-0.683-0.889-0.895-1.463
			c-0.213-0.573-0.318-1.221-0.318-1.943c0-0.677,0.089-1.299,0.267-1.867c0.178-0.567,0.438-1.058,0.783-1.471
			c0.344-0.413,0.766-0.734,1.264-0.964c0.499-0.229,1.07-0.344,1.712-0.344c0.585,0,1.093,0.083,1.523,0.249
			c0.43,0.167,0.742,0.324,0.938,0.474v-4.783l1.118-0.206V125.39z M98.982,118.388c-0.104-0.08-0.232-0.166-0.388-0.258
			c-0.154-0.092-0.335-0.178-0.542-0.259c-0.206-0.08-0.43-0.146-0.671-0.197c-0.24-0.052-0.493-0.078-0.757-0.078
			c-0.551,0-1.013,0.098-1.385,0.293c-0.373,0.195-0.674,0.456-0.903,0.783c-0.229,0.326-0.396,0.711-0.499,1.152
			s-0.154,0.909-0.154,1.402c0,1.17,0.292,2.067,0.877,2.692s1.359,0.938,2.322,0.938c0.551,0,0.995-0.025,1.334-0.077
			c0.338-0.052,0.594-0.106,0.766-0.164V118.388z"/>
		<path fill="#FF8000" d="M102.526,121.209c0-0.779,0.111-1.459,0.335-2.039c0.225-0.578,0.517-1.063,0.878-1.453
			s0.774-0.68,1.238-0.869c0.465-0.189,0.943-0.284,1.437-0.284c1.09,0,1.959,0.356,2.606,1.067
			c0.648,0.711,0.973,1.807,0.973,3.286c0,0.092-0.003,0.184-0.009,0.274c-0.006,0.093-0.015,0.179-0.025,0.259h-6.245
			c0.034,1.09,0.304,1.927,0.809,2.512c0.504,0.585,1.307,0.877,2.408,0.877c0.607,0,1.09-0.057,1.445-0.172
			c0.355-0.114,0.613-0.212,0.774-0.292l0.206,0.963c-0.161,0.092-0.462,0.201-0.903,0.327s-0.961,0.189-1.557,0.189
			c-0.78,0-1.445-0.115-1.996-0.345c-0.551-0.229-1.004-0.55-1.359-0.963s-0.613-0.903-0.773-1.471
			C102.606,122.508,102.526,121.886,102.526,121.209z M108.84,120.504c-0.023-0.93-0.241-1.651-0.654-2.168
			s-0.998-0.774-1.755-0.774c-0.401,0-0.76,0.081-1.075,0.241s-0.591,0.376-0.826,0.646c-0.234,0.27-0.418,0.582-0.55,0.938
			c-0.133,0.355-0.21,0.729-0.232,1.118H108.84z"/>
		<path fill="#FF8000" d="M115.179,124.461c0.241-0.493,0.489-1.059,0.742-1.695c0.253-0.636,0.497-1.296,0.733-1.979
			c0.236-0.682,0.454-1.37,0.656-2.064c0.201-0.693,0.37-1.345,0.509-1.952h1.119c-0.208,0.814-0.439,1.617-0.693,2.408
			c-0.254,0.792-0.521,1.565-0.805,2.323c-0.283,0.757-0.577,1.485-0.883,2.185c-0.306,0.7-0.604,1.359-0.892,1.979h-1.043
			c-0.3-0.619-0.6-1.278-0.9-1.979c-0.3-0.699-0.591-1.428-0.874-2.185c-0.282-0.758-0.551-1.531-0.806-2.323
			c-0.254-0.791-0.484-1.594-0.692-2.408h1.188c0.138,0.607,0.308,1.259,0.509,1.952c0.201,0.694,0.42,1.383,0.656,2.064
			c0.235,0.683,0.48,1.343,0.733,1.979C114.69,123.402,114.938,123.968,115.179,124.461z"/>
		<path fill="#FF8000" d="M120.211,121.209c0-0.779,0.111-1.459,0.335-2.039c0.225-0.578,0.517-1.063,0.878-1.453
			s0.774-0.68,1.238-0.869c0.465-0.189,0.943-0.284,1.437-0.284c1.09,0,1.959,0.356,2.606,1.067
			c0.648,0.711,0.973,1.807,0.973,3.286c0,0.092-0.003,0.184-0.009,0.274c-0.006,0.093-0.015,0.179-0.025,0.259h-6.245
			c0.034,1.09,0.304,1.927,0.809,2.512c0.504,0.585,1.307,0.877,2.408,0.877c0.607,0,1.09-0.057,1.445-0.172
			c0.355-0.114,0.613-0.212,0.774-0.292l0.206,0.963c-0.161,0.092-0.462,0.201-0.903,0.327s-0.961,0.189-1.557,0.189
			c-0.78,0-1.445-0.115-1.996-0.345c-0.551-0.229-1.004-0.55-1.359-0.963s-0.613-0.903-0.773-1.471
			C120.292,122.508,120.211,121.886,120.211,121.209z M126.526,120.504c-0.023-0.93-0.241-1.651-0.654-2.168
			s-0.998-0.774-1.755-0.774c-0.401,0-0.76,0.081-1.075,0.241s-0.591,0.376-0.826,0.646c-0.234,0.27-0.418,0.582-0.55,0.938
			c-0.133,0.355-0.21,0.729-0.232,1.118H126.526z"/>
		<path fill="#FF8000" d="M132.426,125.82c-0.379-0.012-0.708-0.061-0.989-0.146s-0.517-0.218-0.705-0.396
			c-0.189-0.178-0.333-0.407-0.431-0.688s-0.146-0.634-0.146-1.059v-11.011l1.119-0.206v11.183c0,0.275,0.025,0.496,0.077,0.662
			c0.052,0.167,0.129,0.299,0.232,0.396c0.103,0.098,0.237,0.169,0.404,0.215c0.166,0.046,0.363,0.086,0.594,0.12L132.426,125.82z"
			/>
		<path fill="#FF8000" d="M142.146,121.227c0,0.699-0.101,1.336-0.301,1.909c-0.201,0.574-0.481,1.062-0.843,1.463
			s-0.789,0.714-1.282,0.938s-1.038,0.335-1.634,0.335c-0.597,0-1.142-0.111-1.635-0.335s-0.921-0.536-1.281-0.938
			c-0.361-0.401-0.643-0.889-0.844-1.463c-0.2-0.573-0.301-1.21-0.301-1.909c0-0.7,0.101-1.336,0.301-1.91
			c0.201-0.573,0.482-1.063,0.844-1.471c0.36-0.407,0.788-0.723,1.281-0.946s1.038-0.336,1.635-0.336
			c0.596,0,1.141,0.112,1.634,0.336s0.921,0.539,1.282,0.946s0.642,0.897,0.843,1.471
			C142.045,119.891,142.146,120.526,142.146,121.227z M140.959,121.227c0-1.112-0.259-1.999-0.774-2.658
			c-0.517-0.659-1.216-0.989-2.099-0.989c-0.884,0-1.583,0.33-2.1,0.989c-0.516,0.659-0.773,1.546-0.773,2.658
			s0.258,1.995,0.773,2.649c0.517,0.653,1.216,0.98,2.1,0.98c0.883,0,1.582-0.327,2.099-0.98
			C140.701,123.222,140.959,122.339,140.959,121.227z"/>
		<path fill="#FF8000" d="M145.69,128.848h-1.118V117.08c0.333-0.114,0.757-0.224,1.273-0.327c0.516-0.103,1.17-0.154,1.961-0.154
			c0.654,0,1.247,0.105,1.781,0.318c0.533,0.212,0.991,0.519,1.376,0.92c0.384,0.401,0.683,0.889,0.895,1.463
			c0.212,0.573,0.318,1.221,0.318,1.943c0,0.677-0.089,1.299-0.267,1.867c-0.178,0.567-0.438,1.056-0.783,1.462
			c-0.344,0.407-0.766,0.726-1.265,0.955c-0.498,0.229-1.069,0.344-1.712,0.344c-0.584,0-1.092-0.083-1.522-0.249
			c-0.43-0.166-0.742-0.324-0.938-0.474V128.848z M145.69,124.065c0.104,0.08,0.232,0.166,0.388,0.258
			c0.154,0.092,0.335,0.178,0.542,0.258c0.206,0.08,0.43,0.146,0.671,0.198c0.24,0.052,0.492,0.077,0.757,0.077
			c0.551,0,1.012-0.095,1.385-0.284c0.373-0.188,0.674-0.447,0.903-0.773c0.229-0.327,0.396-0.712,0.499-1.153
			s0.154-0.909,0.154-1.402c0-1.17-0.292-2.066-0.877-2.692c-0.585-0.625-1.359-0.938-2.322-0.938c-0.551,0-0.996,0.026-1.334,0.077
			c-0.338,0.052-0.594,0.106-0.766,0.164V124.065z"/>
		<path fill="#FF8000" d="M154.069,121.209c0-0.779,0.111-1.459,0.335-2.039c0.225-0.578,0.517-1.063,0.878-1.453
			s0.774-0.68,1.238-0.869c0.465-0.189,0.943-0.284,1.437-0.284c1.09,0,1.959,0.356,2.606,1.067
			c0.648,0.711,0.973,1.807,0.973,3.286c0,0.092-0.003,0.184-0.009,0.274c-0.006,0.093-0.015,0.179-0.025,0.259h-6.245
			c0.034,1.09,0.304,1.927,0.809,2.512c0.504,0.585,1.307,0.877,2.408,0.877c0.607,0,1.09-0.057,1.445-0.172
			c0.355-0.114,0.613-0.212,0.774-0.292l0.206,0.963c-0.161,0.092-0.462,0.201-0.903,0.327s-0.961,0.189-1.557,0.189
			c-0.78,0-1.445-0.115-1.996-0.345c-0.551-0.229-1.004-0.55-1.359-0.963s-0.613-0.903-0.773-1.471
			C154.149,122.508,154.069,121.886,154.069,121.209z M160.383,120.504c-0.023-0.93-0.241-1.651-0.654-2.168
			s-0.998-0.774-1.755-0.774c-0.401,0-0.76,0.081-1.075,0.241s-0.591,0.376-0.826,0.646c-0.234,0.27-0.418,0.582-0.55,0.938
			c-0.133,0.355-0.21,0.729-0.232,1.118H160.383z"/>
		<path fill="#FF8000" d="M167.058,116.599c0.366,0,0.714,0.028,1.041,0.086c0.326,0.058,0.553,0.114,0.679,0.172l-0.224,0.963
			c-0.092-0.045-0.277-0.094-0.559-0.146s-0.651-0.078-1.109-0.078c-0.482,0-0.869,0.035-1.162,0.104
			c-0.292,0.069-0.484,0.127-0.576,0.172v7.794h-1.118v-8.481c0.287-0.126,0.683-0.256,1.188-0.388
			C165.721,116.664,166.335,116.599,167.058,116.599z"/>
	</g>
	<path fill="#7D1C50" d="M89.667,36.774v0.004l-0.364,5.289l3.378-3.942c2.729,1.421,6.27,3.585,6.879,4.388
		c0,0,4.245-11.73,5.275-18.922L89.667,36.774z"/>
	<path fill="#7D1C50" d="M87.853,36.008l17.245-12.418c-2,0.545-24.217,10.021-24.217,10.021
		C82.059,33.6,87.055,35.333,87.853,36.008z"/>
</g>
<g>
</g>
<g>
</g>
<g>
</g>
<g>
</g>
<g>
</g>
<g>
</g>
<g>
</g>
<g>
</g>
<g>
</g>
<g>
</g>
<g>
</g>
<g>
</g>
<g>
</g>
<g>
</g>
<g>
</g>
</svg>
